<svg width="1027" height="672" viewBox="0 0 1027 672" fill="none" xmlns="http://www.w3.org/2000/svg">
<path fill-rule="evenodd" clip-rule="evenodd" d="M523.504 119.304L1019.75 394.465L502.405 670.651L4.0979 396.899L523.504 119.304Z" fill="#0098AB" stroke="#0098AB" stroke-width="0.94488" stroke-miterlimit="22.9256"/>
<path fill-rule="evenodd" clip-rule="evenodd" d="M523.504 79.648L1019.75 354.809L502.405 630.995L4.0979 357.243L523.504 79.648Z" fill="white" stroke="#0098AB" stroke-width="3.77953" stroke-miterlimit="22.9256"/>
<path d="M230.489 376.709H797.803" stroke="#0098AB" stroke-width="3.77953" stroke-miterlimit="22.9256"/>
<path d="M344.729 247.049C344.633 248.667 344.001 251.929 342.985 256.781C341.977 261.615 341.135 265.152 340.451 267.347C340.187 268.189 339.687 269.236 338.892 270.475C336.635 270.416 334.667 270.175 333.207 269.809C331.183 263.171 329.545 259.04 328.389 257.317C326.271 254.157 323.067 251.473 318.795 249.245C315.672 247.616 311.839 246.776 307.107 246.775C298.161 246.772 288.86 251.015 279.424 259.472C274.691 263.713 270.439 268.981 266.891 275.256C263.341 281.528 260.229 288.839 257.7 297.124C255.32 304.921 254.321 312.489 254.719 319.828C255.119 327.172 257.389 332.907 261.393 337.083C265.385 341.247 270.952 343.357 278.132 343.385C281.605 343.4 285.451 342.919 289.695 341.999C291.789 341.545 293.672 340.679 295.267 339.367C296.396 338.437 297.455 337.127 298.255 335.348C299.709 332.103 301.32 327.5 303.177 321.507C304.989 315.661 306.172 311.657 306.677 309.473C306.592 308.619 306.345 308.072 306.08 307.833C305.8 307.583 304.848 307.116 303.207 306.584C300.992 305.867 298.805 305.213 296.621 304.565C295.181 304.137 294.395 303.672 294.217 303.115C294.321 302.396 294.433 301.851 294.541 301.499C294.779 300.727 295.288 299.635 296.072 298.227C297.169 297.876 297.863 297.709 298.269 297.709C304.143 297.721 309.129 298.007 313.296 298.437C314.769 298.588 316.443 298.632 318.128 298.621C322.393 298.591 326.656 298.527 330.979 298.479C332.799 298.428 334.623 298.4 336.5 298.321C337.157 298.295 338.884 298.328 341.856 298.505C341.455 299.975 341.125 301.216 340.811 302.229C340.621 302.831 340.223 303.549 339.572 304.333C338.464 304.901 336.62 305.601 334.209 306.417C331.677 307.273 330.337 307.805 329.959 308.104C329.415 308.532 328.864 309.261 328.431 310.195C327.985 311.149 326.797 314.523 325.019 320.224C322.961 326.825 321.739 330.783 321.268 332.073C319.763 336.197 318.957 338.549 318.784 339.108C318.139 341.177 317.48 342.431 316.768 342.961C314.753 344.468 309.539 346.279 301.16 348.217C292.739 350.168 283.397 351.103 273.04 351.057C265.864 351.027 259.739 350.399 254.837 349.191C249.88 347.969 245.92 346.171 242.911 343.841C238.795 340.653 235.661 336.879 233.46 332.409C231.248 327.924 230.007 323.097 229.857 317.896C229.643 310.521 230.607 303.155 232.833 295.807C235.331 287.575 239.711 279.176 245.933 270.699C250.452 264.543 255.917 259.045 262.317 254.091C268.684 249.16 275.955 245.183 284.172 242.247C292.436 239.295 300.911 237.831 309.571 237.831C310.624 237.831 312.317 238.188 314.643 238.261C321.251 238.471 327.193 239.117 332.388 240.856C337.524 242.575 341.671 244.671 344.729 247.049ZM330.663 345.644C332.145 344.783 333.819 344.283 335.855 344.056C339.708 343.624 342.023 343.04 342.783 342.305C344.271 340.871 345.732 337.903 347.132 333.436C349.613 325.531 352.096 317.629 354.584 309.7C355.12 307.808 355.712 305.928 356.309 304.024C358.088 298.349 359.872 292.676 361.66 286.979C363.588 280.471 365.583 273.931 367.579 267.379C367.931 266.261 368.289 265.121 368.643 263.993C370.111 259.324 370.835 255.893 370.824 253.692C369.331 252.495 367.407 251.921 365.304 251.921C363.963 251.921 362.78 251.763 361.759 251.476C362.091 250.041 362.301 249.003 362.511 248.332C362.651 247.877 362.876 247.341 363.167 246.795C367.599 246.272 372.449 245.108 377.527 243.336C382.693 241.533 386.788 239.733 389.903 237.832C390.669 237.808 391.441 237.76 392.212 237.74C392.679 237.728 393.431 237.775 394.291 237.832C391.3 247.684 388.86 255.972 386.8 262.688C384.741 269.403 383.171 274.573 382.031 278.187C381.355 280.329 380.74 282.072 380.279 283.373C380.219 283.54 380.173 283.705 380.124 283.864C379.955 284.4 379.843 284.937 379.733 285.472C377.759 291.733 375.784 297.984 373.82 304.219C371.857 310.444 369.888 316.681 367.927 322.896C366.635 326.991 365.345 331.083 364.115 335.164C363.901 335.849 363.688 336.524 363.476 337.196C362.719 339.601 362.552 341.308 363.025 342.297C363.389 343.06 364.625 343.467 366.712 343.66C367.833 343.764 369.943 344.084 373.159 344.543C373.076 345.731 372.891 346.68 372.667 347.387C372.488 347.956 372.181 348.731 371.751 349.724C369.645 349.6 367.537 349.507 365.492 349.367C361.925 349.119 357.569 348.949 352.187 348.908C351.209 348.903 350.236 348.815 349.263 348.803C346.197 348.765 341.607 349.155 335.716 349.485C333.695 349.599 331.723 349.469 329.812 349.46C330.096 348.196 330.379 346.919 330.663 345.644ZM452.067 333.999C452.452 334.425 452.964 334.827 453.455 335.264C453.867 335.631 454.011 336.141 453.928 336.675C453.904 336.828 453.891 336.973 453.904 337.111C450.955 342.107 448.191 345.549 445.472 347.423C442.753 349.296 439.76 350.204 436.636 350.189C433.512 350.176 431.015 349.26 429.293 347.433C427.556 345.592 426.504 342.385 426.079 337.748C422.385 342.024 418.057 345.228 413.2 347.364C408.347 349.499 402.788 350.555 396.709 350.529C391.097 350.505 387.379 349.252 385.487 346.812C383.597 344.371 383.288 341.145 384.537 337.199C385.131 335.328 386.104 333.449 387.493 331.543C388.881 329.635 390.807 327.791 393.176 325.883C395.484 324.024 398.959 321.927 403.568 319.701C404.244 319.375 406.632 318.36 410.631 316.864C418.243 314.019 425.96 311.283 433.605 308.468C434.464 306.344 435.284 304.147 435.989 301.943C438.427 294.341 439.179 289.124 438.255 286.336C437.699 284.652 436.043 283.779 433.364 283.777C430.628 283.773 427.932 284.307 425.273 285.387C422.708 286.431 420.605 287.879 419.06 289.523C417.872 290.785 416.436 293.136 414.831 296.575C413.677 299.047 412.876 300.457 412.409 300.879C411.248 301.925 409.488 302.909 407.064 303.779C404.695 304.631 402.988 305.293 402.1 305.675C398.673 307.153 396.171 307.852 394.427 307.848C393.88 307.183 393.777 306.232 394.172 304.991C395.196 301.749 396.684 298.991 398.784 296.687C401.775 293.408 405.717 290.24 410.596 287.187C415.537 284.093 419.891 281.927 423.733 280.719C428.893 279.097 434.864 278.361 441.623 278.372C445.993 278.377 449.459 279.217 452.069 280.892C454.677 282.563 456.065 285.044 456.199 288.349C456.331 291.633 455.111 297.561 452.295 306.069C450.748 310.747 449.123 315.38 447.572 320.012C446.529 323.421 445.488 326.841 444.452 330.249C444.169 331.119 443.888 332.001 443.605 332.879C442.852 335.224 442.621 336.839 442.979 337.697C443.34 338.569 444.009 339.011 444.995 339.012C445.572 339.015 446.144 338.867 446.657 338.525C447.895 337.215 449.131 335.901 450.428 334.576C450.955 334.385 451.481 334.192 452.067 333.999ZM431.677 314.309C428.197 315.373 424.2 317.148 419.509 319.637C414.824 322.127 411.312 324.597 408.977 327.149C407.3 328.984 406.089 331.292 405.235 333.973C404.472 336.371 404.539 338.388 405.421 339.944C406.319 341.525 407.671 342.343 409.521 342.349C412.535 342.361 415.435 341.44 418.095 339.673C421.697 337.279 424.021 335.372 424.985 333.921C425.927 332.507 427.495 328.425 429.641 321.74C430.433 319.272 431.113 316.791 431.677 314.309ZM466.469 326.248C468.147 325.909 469.415 325.777 470.168 325.779C470.573 325.779 471.144 325.816 471.889 325.843C472.025 326.128 472.231 326.395 472.305 326.704C473.596 332.045 474.385 335.321 474.949 336.447C476.112 338.756 477.4 340.628 478.824 342.023C479.776 342.953 481.415 343.865 483.764 344.843C485.345 345.499 487.143 345.867 489.168 345.875C492.585 345.888 495.905 344.727 499.093 342.475C502.315 340.199 504.347 337.777 505.213 335.117C505.809 333.295 505.839 331.767 505.332 330.501C504.817 329.216 503.361 327.985 500.988 326.724C499.797 326.091 496.721 325.025 491.72 323.616C486.667 322.193 483.651 321.276 482.639 320.823C480.409 319.824 478.639 318.356 477.224 316.553C475.801 314.739 474.945 312.692 474.671 310.448C474.276 307.237 474.463 304.441 475.211 302.132C476.597 297.851 478.321 294.309 480.443 291.557C482.543 288.832 485.028 286.403 487.863 284.311C490.011 282.724 492.865 281.268 496.5 279.972C500.116 278.68 503.777 278.036 507.448 278.039C512.636 278.048 517.121 278.421 520.785 279.161C524.503 279.912 527.46 281.041 529.719 282.504C529.64 283.811 529.116 286.828 528.152 291.544C527.188 296.259 526.621 299.047 526.348 299.884C526.217 300.283 525.967 300.697 525.639 301.167C524.091 301.623 522.86 301.824 521.931 301.824C521.351 301.824 520.603 301.785 519.595 301.668C519.337 300.855 519.083 299.659 518.784 298.099C517.816 293.039 516.311 289.461 514.191 287.385C512.073 285.315 509.263 284.268 505.655 284.263C501.868 284.256 498.339 285.364 494.997 287.635C492.585 289.272 490.937 291.521 490.011 294.375C489.409 296.227 489.819 298.091 491.133 300.051C492.443 302.004 495.251 303.487 499.675 304.567C506.297 306.187 511.037 307.891 513.873 309.539C518.027 311.949 520.569 314.737 521.521 317.961C522.467 321.172 522.2 324.912 520.807 329.157C518.667 335.683 514.505 341.132 508.313 345.484C502.151 349.817 494.424 351.968 485.279 351.928C484.124 351.924 481.089 351.633 476.179 351.039C474.012 350.779 471.531 350.181 468.683 349.32C467.999 349.113 466.196 348.353 463.509 346.857C463 346.572 462.715 346.105 462.637 345.616C462.561 345.144 462.933 342.8 463.809 338.593C465.239 331.739 466.089 327.611 466.469 326.248ZM536.203 326.489C537.94 326.151 539.148 326.017 540.019 326.019C540.365 326.019 540.936 326.057 541.683 326.081C541.817 326.369 542.071 326.608 542.152 326.947C543.457 332.288 544.173 335.587 544.731 336.715C545.879 339.031 547.132 340.869 548.627 342.307C549.552 343.199 551.204 344.156 553.548 345.133C555.124 345.793 556.919 346.161 559.001 346.169C562.417 346.181 565.707 345.045 568.951 342.759C572.148 340.503 574.233 338.045 575.119 335.38C575.725 333.553 575.711 332.024 575.211 330.755C574.704 329.467 573.251 328.245 570.893 326.964C569.757 326.348 566.633 325.276 561.587 323.849C556.596 322.436 553.533 321.503 552.525 321.048C550.301 320.045 548.541 318.575 547.139 316.767C545.728 314.948 544.796 312.921 544.509 310.647C544.104 307.439 544.4 304.624 545.164 302.307C546.579 298.013 548.289 294.435 550.408 291.705C552.551 288.943 555.107 286.563 557.993 284.437C560.115 282.873 562.955 281.376 566.6 280.085C570.281 278.78 573.893 278.145 577.621 278.149C582.808 278.157 587.293 278.516 591.068 279.275C594.723 280.009 597.787 281.16 600.039 282.625C599.892 283.936 599.373 286.968 598.411 291.689C597.443 296.424 596.772 299.215 596.492 300.053C596.359 300.455 596.161 300.869 595.831 301.34C594.283 301.796 592.988 302 592.06 301.999C591.539 301.999 590.735 301.961 589.784 301.843C589.532 301.027 589.241 299.839 588.939 298.263C587.961 293.197 586.493 289.575 584.417 287.521C582.284 285.415 579.456 284.393 575.844 284.388C572.001 284.381 568.413 285.507 565.107 287.769C562.691 289.425 561.019 291.669 560.076 294.528C559.46 296.388 559.856 298.256 561.16 300.232C562.453 302.192 565.309 303.669 569.729 304.748C576.397 306.376 581.125 308.083 583.952 309.733C588.088 312.151 590.619 314.961 591.543 318.181C592.472 321.416 592.292 325.148 590.869 329.405C588.685 335.947 584.468 341.385 578.151 345.777C571.94 350.093 564.216 352.28 555.016 352.239C553.8 352.235 550.772 351.936 545.92 351.348C543.696 351.079 541.163 350.488 538.32 349.624C537.636 349.417 535.908 348.637 533.163 347.153C532.609 346.855 532.403 346.396 532.299 345.908C532.195 345.428 532.601 343.081 533.461 338.867C534.864 331.989 535.813 327.853 536.203 326.489ZM729.841 241.729C729.944 243.484 729.744 248.392 729.212 256.505C728.972 260.179 728.18 264.097 726.823 268.221C724.255 268.219 721.688 268.216 719.179 268.213C716.481 260.412 712.92 254.779 708.417 251.364C703.872 247.919 698.136 246.209 691.121 246.209C682.529 246.208 674.373 249.685 666.719 256.633C661.557 261.317 656.979 266.952 653.021 273.483C649.067 280.011 645.681 287.455 642.86 295.817C639.597 305.481 637.797 312.36 637.633 316.467C637.368 323.093 638.076 328.539 639.688 332.728C640.917 335.921 643.121 338.4 646.224 340.324C650.261 342.827 654.951 344.183 660.452 344.203C666.473 344.227 673.044 342.303 679.993 338.457C686.996 334.58 694.436 328.823 702.256 321.104C704.485 320.705 707.225 320.507 710.555 320.459C709.583 322.607 708.505 324.828 707.197 327.167C706.699 328.059 704.935 331.725 701.568 337.987C701.079 338.897 700.457 339.693 699.936 340.536C699.069 341.876 698.207 343.203 697.404 344.529C693.137 347.172 687.703 349.137 681.112 350.449C674.58 351.749 666.887 352.373 657.975 352.336C651.263 352.307 645.049 351.653 639.473 350.327C633.895 348.997 629.452 346.887 626.107 344.061C621.239 339.948 617.751 335.553 615.784 330.784C613.819 326.019 612.891 320.805 613.063 315.195C613.235 309.551 614.449 303.264 616.8 296.255C619.648 287.761 623.567 280.001 628.625 273C633.705 265.967 639.927 259.681 647.233 254.129C661.915 242.979 677.727 237.408 694.636 237.408C701.599 237.408 707.973 237.767 713.872 238.495C719.645 239.209 725.073 240.285 729.841 241.729ZM799.324 288.849C801.544 292.543 802.905 296.501 803.063 301.105C803.221 305.713 802.656 310.064 801.231 314.119C798.541 321.781 795.16 327.937 791.253 332.608C785.369 339.645 778.833 344.824 771.767 348.164C764.804 351.457 757.449 353.136 749.696 353.103C741.131 353.067 734.463 351.043 729.821 347.06C725.163 343.061 722.5 338.529 721.64 333.468C720.776 328.385 721.672 322.088 724.263 314.567C725.568 310.773 727.497 306.884 730.035 303.057C732.589 299.205 735.427 295.873 738.569 293.012C741.715 290.149 744.879 287.736 748.167 285.811C752.849 283.064 757.259 281.089 761.395 279.929C765.587 278.755 770.404 278.185 775.705 278.193C787.363 278.208 795.133 281.879 799.324 288.849ZM743.348 318.385C741.085 325.395 740.325 329.533 740.157 330.616C739.561 334.429 739.58 337.689 740.179 340.429C740.567 342.2 741.812 343.761 743.768 345.136C745.727 346.511 748.381 347.221 751.74 347.233C755.848 347.249 759.721 345.915 763.437 343.28C767.116 340.669 770.54 336.556 773.735 330.909C775.839 327.195 778.312 321.136 781.26 312.695C784.889 302.303 785.833 294.9 783.977 290.581C782.107 286.227 778.491 284.081 773.017 284.072C768.707 284.065 764.781 285.285 761.072 287.744C757.368 290.201 754.167 293.856 751.413 298.643C749.631 301.74 746.628 308.232 743.348 318.385Z" fill="#0098AB"/>
<path d="M234.485 439.988L234.548 437.788C234.936 437.665 235.619 437.5 236.604 437.3C238.177 436.98 239.141 436.692 239.477 436.427C239.813 436.172 240.232 435.541 240.725 434.547L246.923 417.4L254.212 397.247C254.883 397.268 255.533 397.28 256.141 397.28H257.525L257.797 397.865L263.147 411.217C264.352 414.049 265.443 416.792 266.408 419.469C267.372 422.135 268.201 424.315 268.893 425.996C269.303 427.013 269.868 428.528 270.581 430.564C270.948 431.671 271.515 433.053 272.269 434.712C272.679 435.619 272.993 436.151 273.193 436.295C273.56 436.627 274.168 436.836 274.996 436.947C275.825 437.057 276.716 437.3 277.681 437.688C277.785 438.407 277.839 438.939 277.839 439.281C277.839 439.436 277.828 439.668 277.807 439.988C276.287 439.988 274.619 439.923 272.793 439.767C270.969 439.612 269.333 439.535 267.876 439.535C266.26 439.535 265.097 439.557 264.373 439.601L259.151 439.9L257.651 439.967C257.651 439.203 257.683 438.484 257.745 437.788L261.153 437.013C262.171 436.736 262.769 436.515 262.936 436.36C263.136 436.151 263.24 435.896 263.24 435.619C263.24 435.343 263.188 435.044 263.084 434.745L261.856 431.571L259.433 425.221L247.699 425.188C247.269 426.216 246.377 428.761 245.025 432.799C244.637 433.949 244.437 434.724 244.437 435.133C244.437 435.697 244.584 436.095 244.867 436.327C245.34 436.748 246.241 437.036 247.573 437.212C247.752 437.245 248.485 437.367 249.755 437.567C249.776 438.34 249.785 438.883 249.785 439.181C249.785 439.424 249.765 439.668 249.723 439.933C248.455 439.933 245.424 439.745 240.631 439.38L239.372 439.601C237.852 439.867 236.405 439.988 235.041 439.988H234.485ZM248.927 421.781C253.719 421.848 256.539 421.88 257.399 421.88L258.176 421.848C257.556 419.923 256.76 417.677 255.773 415.121C254.788 412.567 253.991 410.609 253.383 409.271L248.927 421.781ZM302.943 400.785L302.849 398.219C303.227 398.197 303.604 398.185 303.992 398.185C305.019 398.185 306.089 398.219 307.211 398.285C309.917 398.441 311.511 398.507 311.983 398.507C313.619 398.507 315.224 398.473 316.785 398.397C318.348 398.319 319.743 398.275 320.971 398.252C322.187 398.231 323.004 398.208 323.435 398.185L323.403 398.573L323.467 400.487V400.753C322.323 400.919 321.139 401.007 319.9 401.007C318.757 401.007 318.003 401.251 317.635 401.727C317.384 402.024 317.268 403.308 317.268 405.576C317.268 406.272 317.268 406.825 317.288 407.257L317.32 408.429L317.268 411.472L317.447 414.072L317.32 419.679L317.719 427.809C317.824 430.167 318.317 432.124 319.197 433.672C319.859 434.823 320.771 435.719 321.967 436.36C323.687 437.268 325.375 437.721 327.031 437.721C329.003 437.721 330.828 437.455 332.537 436.913C333.533 436.615 334.488 436.117 335.379 435.443C336.271 434.757 336.889 434.137 337.235 433.573C337.969 432.389 338.483 431.272 338.767 430.243C339.155 428.816 339.353 426.604 339.353 423.595C339.353 418.363 339.091 412.479 338.557 405.929L338.431 404.215C338.368 402.943 338.148 402.091 337.76 401.66C337.099 400.985 336.365 400.653 335.547 400.653L332.652 400.72L332.253 400.62L332.317 398.153H334.739L340.612 398.419C342.584 398.419 344.451 398.319 346.233 398.12L346.757 398.185C346.883 398.905 346.945 399.403 346.945 399.68C346.945 399.912 346.904 400.211 346.82 400.553C346.065 400.797 345.257 400.929 344.419 400.973C343.045 401.173 342.289 401.328 342.153 401.461C341.86 401.727 341.724 402.124 341.724 402.655C341.724 403.053 341.744 403.607 341.807 404.348C341.871 404.891 341.901 405.829 341.901 407.169C341.901 407.921 341.912 408.517 341.923 408.949C341.933 409.381 341.943 409.824 341.964 410.277C342.027 411.836 342.08 413.407 342.121 415.011L342.427 421.581C342.427 425.996 342.279 428.939 341.996 430.431C341.713 431.924 341.315 433.097 340.832 433.972C340.067 435.265 338.997 436.46 337.603 437.544C336.207 438.639 334.467 439.503 332.38 440.143C330.293 440.773 327.849 441.095 325.071 441.095C321.893 441.095 319.167 440.652 316.891 439.756C314.625 438.849 312.905 437.676 311.752 436.216C310.588 434.757 309.801 432.865 309.372 430.531C309.057 428.927 308.911 426.637 308.911 423.661L308.941 408.197C308.941 404.547 308.773 402.489 308.449 402.013C307.997 401.339 306.593 400.963 304.233 400.875C303.719 400.875 303.289 400.841 302.943 400.785ZM400.721 398.993C400.921 399.735 401.109 400.841 401.267 402.335C401.519 404.559 401.635 406.295 401.635 407.523C401.635 407.909 401.603 408.331 401.519 408.783L401.205 408.883L399.001 408.717L398.624 408.651C397.723 405.808 396.831 403.872 395.929 402.855C394.367 401.129 392.532 400.267 390.424 400.267C388.421 400.267 386.827 400.819 385.652 401.936C384.467 403.043 383.88 404.425 383.88 406.063C383.88 407.445 384.467 408.772 385.631 410.044C386.775 411.328 389.217 412.545 392.94 413.717C394.199 414.104 395.709 414.724 397.481 415.587C399.243 416.46 400.596 417.4 401.519 418.407C402.745 419.745 403.595 421.04 404.047 422.279C404.508 423.528 404.739 425.077 404.739 426.936C404.739 428.96 404.381 430.963 403.668 432.931C403.281 433.972 402.652 434.944 401.792 435.873C401.184 436.527 400.229 437.289 398.939 438.164C397.649 439.037 396.307 439.668 394.923 440.055C393.548 440.453 391.767 440.641 389.596 440.641C388.159 440.641 386.449 440.431 384.467 439.988L380.776 438.86C379.759 438.561 379.109 438.285 378.847 438.053C378.741 437.964 378.648 437.755 378.563 437.433V437.079C378.563 436.836 378.511 435.365 378.416 432.632C378.375 431.228 378.353 430.243 378.353 429.657V428.429L381.175 428.363C382.16 430.763 382.8 432.201 383.083 432.699C383.712 433.805 384.415 434.691 385.191 435.376C385.956 436.061 386.869 436.593 387.939 436.991C388.997 437.4 390.161 437.6 391.409 437.6C392.511 437.6 393.737 437.345 395.069 436.847C396.391 436.349 397.471 435.541 398.279 434.403C399.085 433.273 399.484 432.057 399.484 430.763C399.484 429.159 398.781 427.677 397.367 426.316C396.507 425.476 394.199 424.348 390.424 422.943C386.659 421.548 384.048 420.288 382.591 419.192C381.133 418.087 379.989 416.615 379.151 414.768C378.312 412.921 377.892 411.14 377.892 409.436C377.892 405.996 379.056 403.087 381.395 400.687C383.723 398.285 387.173 397.091 391.713 397.091C392.7 397.091 394.157 397.268 396.076 397.633C397.251 397.855 398.792 398.308 400.721 398.993ZM435.317 396.24H437.227C437.373 396.483 437.477 396.66 437.531 396.76C438.107 397.799 438.548 398.485 438.852 398.805C439.124 398.895 440.529 398.939 443.067 398.939C444.64 398.939 446.045 398.928 447.273 398.905L447.891 398.805L451.603 398.773L458.545 398.839H468.047L469.851 398.54C470.124 398.352 470.407 397.832 470.711 396.992C470.795 396.793 470.909 396.527 471.057 396.184L472.409 396.151C472.609 396.151 472.913 396.163 473.332 396.184C473.343 397.667 473.353 399.912 473.353 402.921L473.385 405.808L473.353 407.456C473.353 408.02 473.321 408.507 473.239 408.916C472.399 409.193 471.655 409.369 471.025 409.436C470.491 408.595 469.913 407.368 469.284 405.775C468.665 404.171 468.267 403.285 468.1 403.109C467.859 402.832 467.576 402.655 467.239 402.567C466.757 402.456 464.585 402.4 460.727 402.4C460.16 402.4 459.437 402.445 458.577 402.533C458.461 403.375 458.399 404.06 458.399 404.603L458.431 408.949V418.473L458.545 428.749L458.515 432.964C458.515 434.457 458.64 435.575 458.892 436.327C459.217 436.483 459.815 436.627 460.696 436.759C460.863 436.769 461.619 436.947 462.972 437.268C463.591 437.423 464.136 437.6 464.597 437.788C464.701 438.573 464.755 439.048 464.755 439.215C464.755 439.413 464.723 439.691 464.66 440.055C464.209 440.077 463.841 440.088 463.559 440.088C461.451 440.088 459.657 440.011 458.179 439.845C456.711 439.691 454.036 439.601 450.167 439.601C449.548 439.601 447.744 439.735 444.756 439.988C443.592 440.077 442.827 440.121 442.48 440.121C442.46 439.8 442.439 439.547 442.417 439.38L442.385 438.628V438.373C442.837 437.743 443.685 437.279 444.933 436.98C447.073 436.439 448.541 435.951 449.36 435.52C449.569 435.111 449.695 434.568 449.737 433.905C449.873 431.305 449.947 427.179 449.947 421.527L449.789 409.271C449.789 405.896 449.737 403.861 449.611 403.141C449.569 402.955 449.495 402.809 449.391 402.711C449.296 402.611 449.149 402.556 448.961 402.533C448.332 402.445 446.255 402.4 442.752 402.4C440.833 402.4 439.544 402.6 438.884 402.988C438.003 403.529 436.681 404.989 434.919 407.389C434.416 408.087 434.028 408.429 433.787 408.429C432.843 407.909 432.245 407.489 431.972 407.169C432.612 405.764 433.493 402.955 434.615 398.74C434.94 397.512 435.181 396.671 435.317 396.24ZM503.041 438.02C503.576 437.709 504.363 437.488 505.411 437.356C506.449 437.212 507.393 436.98 508.232 436.66C508.337 436.228 508.4 435.907 508.421 435.719C508.463 435.409 508.484 434.38 508.484 432.611L508.452 425.376L508.568 421.493L508.515 418.473L508.568 416.727C508.631 414.369 508.661 412.169 508.661 410.111C508.661 405.62 508.609 402.744 508.515 401.493L506.701 401.107C505.044 400.996 503.932 400.885 503.376 400.785L503.313 398.839L503.44 398.485C504.467 398.308 505.411 398.219 506.271 398.219C506.743 398.219 507.687 398.208 509.124 398.185C510.603 398.319 511.399 398.385 511.525 398.385L513.151 398.285L516.989 398.087C519.391 397.832 521.917 397.7 524.581 397.7C528.776 397.7 532.121 398.828 534.596 401.085C537.071 403.341 538.308 405.929 538.308 408.849C538.308 411.029 537.637 413.02 536.295 414.801C534.963 416.581 532.897 417.921 530.108 418.828C530.36 419.281 530.684 419.812 531.093 420.42C531.953 421.715 532.645 422.821 533.18 423.728L538.099 432.124C539.325 434.348 540.133 435.641 540.511 436.028C540.888 436.405 541.675 436.815 542.86 437.268C543.783 437.644 544.485 438.008 544.979 438.373C545.104 438.739 545.167 439.071 545.167 439.347C545.167 439.535 545.156 439.789 545.136 440.088H544.307L543.688 440.121L542.093 439.9H540.836C540.175 439.789 539.367 439.735 538.403 439.735L535.329 439.701C535.109 439.701 534.385 439.779 533.18 439.933C532.624 439.988 532.184 440.044 531.859 440.088L530.82 437.953C529.96 436.327 529.352 435.121 529.007 434.325C528.105 432.224 526.552 428.893 524.361 424.315C523.344 422.191 522.62 420.996 522.211 420.708C521.603 420.255 520.544 420.033 519.044 420.033C518.636 420.033 517.943 420.055 516.957 420.1C516.893 420.719 516.863 421.472 516.863 422.333L516.989 429.524L516.841 435.619C517.408 435.984 518.163 436.272 519.076 436.46C520.68 436.803 522.053 437.224 523.197 437.688C523.197 438.749 523.155 439.547 523.071 440.088C522.683 440.067 522.443 440.055 522.337 440.055L521.079 440.121C516.673 439.712 514.063 439.513 513.245 439.513C512.709 439.513 512.332 439.524 512.101 439.535L507.865 439.833C506.575 439.988 505.4 440.055 504.331 440.055H503.009C502.968 439.524 502.947 439.171 502.947 439.027C502.947 438.783 502.979 438.451 503.041 438.02ZM516.863 417.047C517.849 417.091 518.572 417.113 519.023 417.113C522.504 417.113 524.969 416.46 526.427 415.133C527.873 413.816 528.608 412.057 528.608 409.857C528.608 408.496 528.429 407.213 528.063 406.019C527.707 404.812 527.265 403.927 526.731 403.341C525.976 402.5 524.979 401.859 523.752 401.428C522.851 401.107 521.403 400.94 519.421 400.94C518.479 400.94 517.671 400.996 516.989 401.107L516.957 401.727L516.989 406.096L516.925 408.751L516.957 412.291C516.915 413.275 516.884 414.569 516.863 416.14V417.047ZM568.74 439.988L568.804 437.788C569.192 437.665 569.873 437.5 570.86 437.3C572.432 436.98 573.397 436.692 573.732 436.427C574.068 436.172 574.487 435.541 574.98 434.547L581.179 417.4L588.467 397.247C589.137 397.268 589.788 397.28 590.396 397.28H591.78L592.053 397.865L597.401 411.217C598.607 414.049 599.697 416.792 600.663 419.469C601.628 422.135 602.456 424.315 603.148 425.996C603.557 427.013 604.124 428.528 604.836 430.564C605.204 431.671 605.769 433.053 606.524 434.712C606.933 435.619 607.248 436.151 607.448 436.295C607.815 436.627 608.423 436.836 609.251 436.947C610.08 437.057 610.972 437.3 611.936 437.688C612.04 438.407 612.093 438.939 612.093 439.281C612.093 439.436 612.083 439.668 612.061 439.988C610.541 439.988 608.873 439.923 607.049 439.767C605.224 439.612 603.588 439.535 602.131 439.535C600.516 439.535 599.352 439.557 598.628 439.601L593.405 439.9L591.907 439.967C591.907 439.203 591.937 438.484 592 437.788L595.409 437.013C596.427 436.736 597.024 436.515 597.191 436.36C597.391 436.151 597.495 435.896 597.495 435.619C597.495 435.343 597.443 435.044 597.339 434.745L596.112 431.571L593.688 425.221L581.955 425.188C581.524 426.216 580.633 428.761 579.28 432.799C578.892 433.949 578.693 434.724 578.693 435.133C578.693 435.697 578.839 436.095 579.123 436.327C579.595 436.748 580.497 437.036 581.828 437.212C582.007 437.245 582.74 437.367 584.009 437.567C584.031 438.34 584.041 438.883 584.041 439.181C584.041 439.424 584.02 439.668 583.979 439.933C582.709 439.933 579.679 439.745 574.885 439.38L573.627 439.601C572.107 439.867 570.66 439.988 569.296 439.988H568.74ZM583.181 421.781C587.973 421.848 590.795 421.88 591.655 421.88L592.431 421.848C591.812 419.923 591.015 417.677 590.029 415.121C589.043 412.567 588.247 410.609 587.639 409.271L583.181 421.781ZM637.419 437.333C638.048 437.145 638.949 436.957 640.103 436.769C641.257 436.581 641.939 436.493 642.148 436.493C642.945 436.471 643.48 436.327 643.741 436.073C643.868 435.552 643.931 435.121 643.931 434.779L643.868 430.631L644.057 426.416V423.728L644.088 420.553L644.025 417.18L644.14 409.956L644.172 406.681V406.228C644.036 403.96 643.888 402.711 643.763 402.479C643.627 402.257 643.039 401.969 641.991 401.627C641.896 401.583 641.497 401.416 640.827 401.14C640.313 400.919 639.852 400.775 639.443 400.687C638.729 400.487 638.227 400.267 637.943 400C637.901 399.436 637.88 399.005 637.88 398.707C637.88 398.529 637.891 398.275 637.912 397.932C638.089 397.821 638.288 397.767 638.488 397.767C638.981 397.767 640.764 397.855 643.836 398.032L648.231 397.999L651.492 398.053C652.897 398.053 654.711 397.965 656.924 397.767C657.584 397.7 657.961 397.667 658.067 397.667C658.372 397.667 658.581 397.755 658.707 397.932C658.875 398.164 658.948 398.595 658.948 399.227C658.948 399.724 658.843 400.1 658.612 400.355C658.497 400.509 658.047 400.643 657.26 400.753L653.452 401.693C653.348 401.727 653.18 401.815 652.928 401.948C652.845 402.103 652.792 402.224 652.751 402.335L652.719 403.241L652.624 405.288V405.873L652.656 406.228C652.656 406.339 652.624 406.925 652.561 408.009C652.54 408.285 652.531 408.573 652.531 408.849C652.531 409.193 652.551 409.779 652.593 410.597C652.656 411.892 652.688 413.031 652.688 414.005C652.688 415.121 652.656 416.416 652.593 417.865C652.572 418.396 652.561 419.104 652.561 419.967L652.436 435.332C652.436 435.973 652.54 436.393 652.751 436.593L655.665 436.725L657.48 436.692L659.409 436.759C662.712 436.759 665.303 436.349 667.191 435.552C668.595 434.944 669.519 434.348 669.948 433.739C670.651 433.085 671.217 432.389 671.659 431.637C672.099 430.873 672.591 429.624 673.147 427.876H674.133C674.625 427.876 675.172 427.92 675.789 427.997V428.916C675.789 430.464 675.601 433.185 675.233 437.079C675.097 438.628 674.951 439.579 674.804 439.933C674.332 440.011 674.039 440.055 673.912 440.055H672.78L671.185 440.088C670.997 440.088 669.781 440 667.527 439.833C667.117 439.812 665.156 439.735 661.653 439.601C658.151 439.48 654.721 439.413 651.365 439.413L645.095 439.601C642.683 439.668 640.417 439.789 638.309 439.967H637.848C637.723 439.967 637.533 439.956 637.261 439.933C637.219 439.691 637.197 439.491 637.197 439.315C637.197 438.407 637.272 437.743 637.419 437.333ZM703.664 440.021V437.688C704.072 437.567 704.755 437.379 705.697 437.145C707.029 436.792 708.016 436.439 708.676 436.073C709.043 435.397 709.232 434.469 709.232 433.285L709.2 429.457L709.253 422.069L709.232 420.321C709.368 416.04 709.443 413.839 709.443 413.717L709.379 409.403L709.473 407.655L709.316 403.96L709.284 402.567C709.264 402.345 709.2 402.003 709.075 401.527C708.236 401.117 706.872 400.852 704.985 400.753C704.533 400.731 704.177 400.697 703.915 400.653L703.821 397.799L712.608 398.185C713.689 398.231 714.371 398.252 714.633 398.252C715.839 398.252 717.779 398.164 720.443 397.999C721.931 397.888 722.875 397.821 723.264 397.799C723.284 398.208 723.295 398.551 723.295 398.839C723.295 399.204 723.273 399.68 723.232 400.267C722.413 400.564 721.481 400.852 720.421 401.117C719.373 401.395 718.503 401.671 717.831 401.948C717.705 402.512 717.643 403.319 717.643 404.381C717.643 405.311 717.673 406.063 717.736 406.648C717.673 410.299 717.643 413.108 717.643 415.077L717.673 423.628L717.579 427.976L717.643 434.457L717.611 435.685C717.611 435.852 717.653 436.105 717.736 436.427C718.984 436.715 720.128 436.903 721.145 437.013C721.333 437.036 721.952 437.124 723.023 437.268C723.107 437.92 723.148 438.461 723.148 438.893C723.148 439.127 723.137 439.503 723.116 439.988C722.844 439.988 722.645 440 722.497 440.021C721.848 440.067 721.469 440.088 721.365 440.088C721.219 440.088 720.956 440.055 720.568 439.988C720.275 439.956 718.912 439.8 716.479 439.535L711.036 439.48C709.956 439.48 708.372 439.579 706.307 439.8C704.953 439.933 704.072 440 703.664 440.021ZM750.435 439.988L750.497 437.788C750.885 437.665 751.567 437.5 752.552 437.3C754.127 436.98 755.091 436.692 755.427 436.427C755.761 436.172 756.181 435.541 756.675 434.547L762.872 417.4L770.16 397.247C770.831 397.268 771.481 397.28 772.091 397.28H773.473L773.747 397.865L779.095 411.217C780.301 414.049 781.392 416.792 782.357 419.469C783.321 422.135 784.149 424.315 784.841 425.996C785.251 427.013 785.817 428.528 786.531 430.564C786.897 431.671 787.464 433.053 788.219 434.712C788.628 435.619 788.943 436.151 789.141 436.295C789.508 436.627 790.117 436.836 790.945 436.947C791.773 437.057 792.665 437.3 793.629 437.688C793.735 438.407 793.788 438.939 793.788 439.281C793.788 439.436 793.776 439.668 793.756 439.988C792.236 439.988 790.568 439.923 788.743 439.767C786.919 439.612 785.283 439.535 783.824 439.535C782.209 439.535 781.045 439.557 780.323 439.601L775.1 439.9L773.6 439.967C773.6 439.203 773.631 438.484 773.695 437.788L777.103 437.013C778.12 436.736 778.717 436.515 778.885 436.36C779.084 436.151 779.189 435.896 779.189 435.619C779.189 435.343 779.137 435.044 779.032 434.745L777.805 431.571L775.383 425.221L763.648 425.188C763.219 426.216 762.327 428.761 760.973 432.799C760.585 433.949 760.387 434.724 760.387 435.133C760.387 435.697 760.533 436.095 760.816 436.327C761.288 436.748 762.191 437.036 763.521 437.212C763.7 437.245 764.435 437.367 765.703 437.567C765.724 438.34 765.735 438.883 765.735 439.181C765.735 439.424 765.715 439.668 765.672 439.933C764.403 439.933 761.372 439.745 756.58 439.38L755.321 439.601C753.801 439.867 752.353 439.988 750.991 439.988H750.435ZM764.875 421.781C769.667 421.848 772.488 421.88 773.348 421.88L774.124 421.848C773.505 419.923 772.709 417.677 771.723 415.121C770.737 412.567 769.94 410.609 769.332 409.271L764.875 421.781Z" fill="#0098AB"/>
</svg>
